<?xml version="1.0" encoding="utf-8"?>
<!-- Generator: Adobe Illustrator 27.0.0, SVG Export Plug-In . SVG Version: 6.00 Build 0)  -->
<svg version="1.1" id="Camada_1" xmlns="http://www.w3.org/2000/svg" xmlns:xlink="http://www.w3.org/1999/xlink" x="0px" y="0px"
	 viewBox="0 0 191 89" style="enable-background:new 0 0 191 89;" xml:space="preserve">
<style type="text/css">
	.st0{fill:none;stroke:#E8B611;stroke-width:3.6191;stroke-miterlimit:10;}
	.st1{fill:#F7DF1E;}
</style>
<path class="st0" d="M169.7,76.2H21.9c-5.1,0-9.2-4.1-9.2-9.2v-44c0-5.1,4.1-9.2,9.2-9.2h147.7c5.1,0,9.2,4.1,9.2,9.2v44
	C178.9,72,174.8,76.2,169.7,76.2z"/>
<g>
	<path class="st1" d="M74.8,56.8V33.1H95v3.4h3.4v10.1H95V50H81.5v6.8H74.8z M81.5,46.6h10.1V36.5H81.5V46.6z"/>
	<path class="st1" d="M101.8,56.8V33.1h6.8v10.1h10.1V33.1h6.8v23.6h-6.8V46.6h-10.1v10.1H101.8z"/>
	<path class="st1" d="M128.8,56.8V33.1H149v3.4h3.4v10.1H149V50h-13.5v6.8H128.8z M135.5,46.6h10.1V36.5h-10.1V46.6z"/>
</g>
<g>
	<g>
		<path class="st1" d="M61.4,34.3c-0.1,0.4-0.2,0.8-0.3,1.2c-0.4,1.4-1,2.5-2,3.5c-1.3,1.3-2.6,2.6-3.9,3.9C55,43,55,43,54.8,42.8
			c-0.7-0.7-1.4-1.4-2-2c-0.2-0.2-0.2-0.3,0-0.4c1.3-1.2,2.5-2.5,3.7-3.7c0.8-0.8,1.2-1.7,1.3-2.7c0.1-0.7-0.1-1.4-0.3-2.1
			c-0.1-0.2-0.2-0.4-0.2-0.5c-0.5-1.4-1.6-1.9-3-2.1c-1.5-0.2-2.8,0.2-3.9,1.4c-2.5,2.6-5.1,5.1-7.6,7.6c-1.8,1.8-1.9,4.2-0.2,6.1
			c0.1,0.2,0.1,0.2,0,0.4c-0.7,0.7-1.4,1.4-2.1,2.1c-0.2,0.2-0.2,0.2-0.4,0c-2.7-2.7-2.9-7-0.6-9.9c0.7-0.9,1.5-1.6,2.3-2.4
			c2.1-2.1,4.2-4.1,6.2-6.2c1.3-1.3,2.9-2.2,4.8-2.5c0,0,0,0,0.1-0.1c0.3,0,0.6,0,1,0c0.1,0.1,0.2,0,0.4,0c0.1,0,0.2,0,0.3,0
			c1,0,1.9,0.3,2.8,0.8c1.4,0.7,2.5,1.8,3.3,3.2c0.5,0.9,0.9,1.9,0.9,2.9c0,0,0,0.1,0,0.1C61.4,33.3,61.4,33.8,61.4,34.3z"/>
		<path class="st1" d="M54.1,25.8c-0.1,0-0.3,0.1-0.4-0.1C53.8,25.7,53.9,25.7,54.1,25.8C54.1,25.7,54.1,25.7,54.1,25.8
			C54.1,25.8,54.1,25.8,54.1,25.8z"/>
		<path class="st1" d="M54.1,25.8C54.1,25.8,54.1,25.7,54.1,25.8c0.1-0.1,0.2-0.1,0.3-0.1c0,0,0,0,0,0.1
			C54.3,25.8,54.2,25.8,54.1,25.8z"/>
		<path class="st1" d="M33.8,60.9c-4.3,0-8-3.6-7.8-8.2c0.1-1.9,0.8-3.5,2.1-4.9c1.3-1.4,2.7-2.7,4.1-4.1c0.1-0.1,0.2-0.1,0.3,0
			c0.7,0.7,1.4,1.4,2.1,2.1c0.2,0.2,0.2,0.2,0,0.4c-1.3,1.3-2.5,2.6-3.8,4c-0.7,0.8-1.2,1.6-1.3,2.7c-0.1,0.9,0.2,1.6,0.5,2.4
			c0.1,0.3,0.3,0.7,0.5,1c0.1,0.1,0.2,0.2,0.3,0.3c1.8,1.4,4.5,1.4,6.2-0.3c2.5-2.6,5.1-5.1,7.6-7.6c1.9-1.8,1.9-4.5,0.3-6.2
			c-0.1-0.1-0.1-0.2,0-0.3c0.7-0.8,1.5-1.7,2.2-2.5c0.2-0.2,0.2-0.1,0.3,0c2.8,3,2.8,7.8,0,10.8c-2.7,2.8-5.5,5.6-8.3,8.3
			C37.6,60.2,35.8,60.9,33.8,60.9z"/>
	</g>
</g>
</svg>
