<?xml version="1.0" encoding="utf-8"?>
<!-- Generator: Adobe Illustrator 27.0.0, SVG Export Plug-In . SVG Version: 6.00 Build 0)  -->
<svg version="1.1" id="Camada_1" xmlns="http://www.w3.org/2000/svg" xmlns:xlink="http://www.w3.org/1999/xlink" x="0px" y="0px"
	 viewBox="0 0 287 91" style="enable-background:new 0 0 287 91;" xml:space="preserve">
<style type="text/css">
	.st0{fill:none;stroke:#E8B611;stroke-width:3.6191;stroke-miterlimit:10;}
	.st1{fill:#F7DF1E;}
</style>
<path class="st0" d="M264.9,76.7H23.5c-5.7,0-10.4-4.6-10.4-10.4V24.6c0-5.7,4.6-10.4,10.4-10.4h241.5c5.7,0,10.4,4.6,10.4,10.4
	v41.7C275.3,72.1,270.6,76.7,264.9,76.7z"/>
<g>
	<path class="st1" d="M74.1,57.3V40.5h3.4v-3.4h3.4v-3.4H91v3.4h3.4v3.4h3.4v16.9H91v-6.8H80.9v6.8H74.1z M80.9,47.2H91v-6.8h-3.4
		v-3.4h-3.4v3.4h-3.4V47.2z"/>
	<path class="st1" d="M101.1,57.3V33.7h6.8v3.4h3.4v3.4h3.4v3.4h3.4V33.7h6.8v23.6H118v-6.8h-3.4v-3.4h-3.4v-3.4h-3.4v13.5H101.1z"
		/>
	<path class="st1" d="M128.1,57.3V33.7H145v3.4h3.4v3.4h3.4v10.1h-3.4V54H145v3.4H128.1z M134.9,54h6.8v-3.4h3.4V40.5h-3.4v-3.4
		h-6.8V54z"/>
	<path class="st1" d="M155.1,57.3V33.7h20.2v3.4h3.4v10.1H172v3.4h3.4V54h3.4v3.4h-10.1V54h-3.4v-3.4h-3.4v6.8H155.1z M161.9,47.2
		h6.8v-3.4h3.4v-6.8h-10.1V47.2z"/>
	<path class="st1" d="M185.5,57.3V54h-3.4V37.1h3.4v-3.4h16.9v3.4h3.4V54h-3.4v3.4H185.5z M188.9,54H199V37.1h-10.1V54z"/>
	<path class="st1" d="M212.5,57.3V54h6.8V37.1h-6.8v-3.4h20.2v3.4H226V54h6.8v3.4H212.5z"/>
	<path class="st1" d="M236.1,57.3V33.7H253v3.4h3.4v3.4h3.4v10.1h-3.4V54H253v3.4H236.1z M242.9,54h6.8v-3.4h3.4V40.5h-3.4v-3.4
		h-6.8V54z"/>
</g>
<g>
	<g>
		<path class="st1" d="M61.7,34.9c-0.1,0.4-0.2,0.8-0.3,1.2c-0.4,1.4-1,2.5-2,3.5c-1.3,1.3-2.6,2.6-3.9,3.9c-0.2,0.2-0.3,0.2-0.4,0
			c-0.7-0.7-1.4-1.4-2-2c-0.2-0.2-0.2-0.3,0-0.4c1.3-1.2,2.5-2.5,3.7-3.7c0.8-0.8,1.2-1.7,1.3-2.7c0.1-0.7-0.1-1.4-0.3-2.1
			c-0.1-0.2-0.2-0.4-0.2-0.5c-0.5-1.4-1.6-1.9-3-2.1c-1.5-0.2-2.8,0.2-3.9,1.4c-2.5,2.6-5.1,5.1-7.6,7.6c-1.8,1.8-1.9,4.2-0.2,6.1
			c0.1,0.2,0.1,0.2,0,0.4c-0.7,0.7-1.4,1.4-2.1,2.1c-0.2,0.2-0.2,0.2-0.4,0c-2.7-2.7-2.9-7-0.6-9.9c0.7-0.9,1.5-1.6,2.3-2.4
			c2.1-2.1,4.2-4.1,6.2-6.2c1.3-1.3,2.9-2.2,4.8-2.5c0,0,0,0,0.1-0.1c0.3,0,0.6,0,1,0c0.1,0.1,0.2,0,0.4,0c0.1,0,0.2,0,0.3,0
			c1,0,1.9,0.3,2.8,0.8c1.4,0.7,2.5,1.8,3.3,3.2c0.5,0.9,0.9,1.9,0.9,2.9c0,0,0,0.1,0,0.1C61.7,33.9,61.7,34.4,61.7,34.9z"/>
		<path class="st1" d="M54.4,26.4c-0.1,0-0.3,0.1-0.4-0.1C54.2,26.3,54.3,26.3,54.4,26.4C54.4,26.3,54.5,26.3,54.4,26.4
			C54.5,26.4,54.4,26.4,54.4,26.4z"/>
		<path class="st1" d="M54.4,26.4C54.4,26.3,54.4,26.3,54.4,26.4c0.1-0.1,0.2-0.1,0.3-0.1c0,0,0,0,0,0.1
			C54.7,26.4,54.6,26.4,54.4,26.4z"/>
		<path class="st1" d="M34.2,61.5c-4.3,0-8-3.6-7.8-8.2c0.1-1.9,0.8-3.5,2.1-4.9c1.3-1.4,2.7-2.7,4.1-4.1c0.1-0.1,0.2-0.1,0.3,0
			c0.7,0.7,1.4,1.4,2.1,2.1c0.2,0.2,0.2,0.2,0,0.4c-1.3,1.3-2.5,2.6-3.8,4c-0.7,0.8-1.2,1.6-1.3,2.7c-0.1,0.9,0.2,1.6,0.5,2.4
			c0.1,0.3,0.3,0.7,0.5,1c0.1,0.1,0.2,0.2,0.3,0.3c1.8,1.4,4.5,1.4,6.2-0.3c2.5-2.6,5.1-5.1,7.6-7.6c1.9-1.8,1.9-4.5,0.3-6.2
			c-0.1-0.1-0.1-0.2,0-0.3c0.7-0.8,1.5-1.7,2.2-2.5c0.2-0.2,0.2-0.1,0.3,0c2.8,3,2.8,7.8,0,10.8c-2.7,2.8-5.5,5.6-8.3,8.3
			C38,60.8,36.2,61.5,34.2,61.5z"/>
	</g>
</g>
</svg>
