<?xml version="1.0" encoding="utf-8"?>
<!-- Generator: Adobe Illustrator 27.0.0, SVG Export Plug-In . SVG Version: 6.00 Build 0)  -->
<svg version="1.1" id="Camada_1" xmlns="http://www.w3.org/2000/svg" xmlns:xlink="http://www.w3.org/1999/xlink" x="0px" y="0px"
	 viewBox="0 0 420 86" style="enable-background:new 0 0 420 86;" xml:space="preserve">
<style type="text/css">
	.st0{fill:none;stroke:#E8B611;stroke-width:3.6191;stroke-miterlimit:10;}
	.st1{fill:#F7DF1E;}
</style>
<g>
	<path class="st0" d="M401.4,74.2H18.6c-4.3,0-7.8-3.5-7.8-7.8V19.6c0-4.3,3.5-7.8,7.8-7.8h382.8c4.3,0,7.8,3.5,7.8,7.8v46.8
		C409.2,70.7,405.7,74.2,401.4,74.2z"/>
	<g>
		<path class="st1" d="M78.1,54.8v-3.4h-3.4v-3.4h-3.4V38h3.4v-3.4h3.4v-3.4h16.9v3.4H81.4V38h-3.4v10.1h3.4v3.4h6.8v-6.8h-3.4v-3.4
			h10.1v13.5H78.1z"/>
		<path class="st1" d="M101.7,54.8v-3.4h6.8V34.6h-6.8v-3.4h20.2v3.4h-6.8v16.9h6.8v3.4H101.7z"/>
		<path class="st1" d="M135.4,54.8V34.6h-6.8v-3.4h20.2v3.4h-6.8v20.2H135.4z"/>
		<path class="st1" d="M196.2,48.1h3.4v3.4h3.4v3.4h-20.2v-3.4h-3.4v-6.8h3.4v-3.4h-3.4v-6.8h3.4v-3.4h10.1v3.4h3.4v6.8h-3.4v3.4
			h3.4V48.1z M186.1,41.3h3.4v-6.8h-3.4V41.3z M192.8,48.1h-3.4v-3.4h-3.4v6.8h6.8V48.1z M202.9,44.7v3.4h-3.4v-3.4H202.9z"/>
		<path class="st1" d="M240.1,54.8v-3.4h-3.4v-3.4h-3.4V38h3.4v-3.4h3.4v-3.4h16.9v3.4h-13.5V38h-3.4v10.1h3.4v3.4h6.8v-6.8h-3.4
			v-3.4h10.1v13.5H240.1z"/>
		<path class="st1" d="M263.7,54.8v-3.4h6.8V34.6h-6.8v-3.4h20.2v3.4h-6.8v16.9h6.8v3.4H263.7z"/>
		<path class="st1" d="M297.4,54.8V34.6h-6.8v-3.4h20.2v3.4h-6.8v20.2H297.4z"/>
		<path class="st1" d="M314.3,54.8V31.2h6.8v10.1h10.1V31.2h6.8v23.6h-6.8V44.7h-10.1v10.1H314.3z"/>
		<path class="st1" d="M344.7,54.8v-3.4h-3.4V31.2h6.8v20.2h10.1V31.2h6.8v20.2h-3.4v3.4H344.7z"/>
		<path class="st1" d="M368.3,54.8V31.2h20.3v3.4h3.4v6.8h-3.4v3.4h3.4v6.8h-3.4v3.4H368.3z M375.1,41.3h10.1v-6.8h-10.1V41.3z
			 M375.1,51.5h10.1v-6.8h-10.1V51.5z"/>
	</g>
	<g>
		<g>
			<path class="st1" d="M59.4,32.4c-0.1,0.4-0.2,0.8-0.3,1.2c-0.4,1.4-1,2.5-2,3.5c-1.3,1.3-2.6,2.6-3.9,3.9c-0.2,0.2-0.3,0.2-0.4,0
				c-0.7-0.7-1.4-1.4-2-2c-0.2-0.2-0.2-0.3,0-0.4c1.3-1.2,2.5-2.5,3.7-3.7c0.8-0.8,1.2-1.7,1.3-2.7c0.1-0.7-0.1-1.4-0.3-2.1
				c-0.1-0.2-0.2-0.4-0.2-0.5c-0.5-1.4-1.6-1.9-3-2.1c-1.5-0.2-2.8,0.2-3.9,1.4c-2.5,2.6-5.1,5.1-7.6,7.6c-1.8,1.8-1.9,4.2-0.2,6.1
				c0.1,0.2,0.1,0.2,0,0.4c-0.7,0.7-1.4,1.4-2.1,2.1c-0.2,0.2-0.2,0.2-0.4,0c-2.7-2.7-2.9-7-0.6-9.9c0.7-0.9,1.5-1.6,2.3-2.4
				c2.1-2.1,4.2-4.1,6.2-6.2c1.3-1.3,2.9-2.2,4.8-2.5c0,0,0,0,0.1-0.1c0.3,0,0.6,0,1,0c0.1,0.1,0.2,0,0.4,0c0.1,0,0.2,0,0.3,0
				c1,0,1.9,0.3,2.8,0.8c1.4,0.7,2.5,1.8,3.3,3.2c0.5,0.9,0.9,1.9,0.9,2.9c0,0,0,0.1,0,0.1C59.4,31.4,59.4,31.9,59.4,32.4z"/>
			<path class="st1" d="M52.1,23.9c-0.1,0-0.3,0.1-0.4-0.1C51.9,23.8,52,23.8,52.1,23.9C52.1,23.8,52.2,23.8,52.1,23.9
				C52.2,23.9,52.1,23.9,52.1,23.9z"/>
			<path class="st1" d="M52.1,23.9C52.1,23.8,52.1,23.8,52.1,23.9c0.1-0.1,0.2-0.1,0.3-0.1c0,0,0,0,0,0.1
				C52.4,23.9,52.3,23.9,52.1,23.9z"/>
			<path class="st1" d="M31.9,59c-4.3,0-8-3.6-7.8-8.2c0.1-1.9,0.8-3.5,2.1-4.9c1.3-1.4,2.7-2.7,4.1-4.1c0.1-0.1,0.2-0.1,0.3,0
				c0.7,0.7,1.4,1.4,2.1,2.1c0.2,0.2,0.2,0.2,0,0.4c-1.3,1.3-2.5,2.6-3.8,4c-0.7,0.8-1.2,1.6-1.3,2.7c-0.1,0.9,0.2,1.6,0.5,2.4
				c0.1,0.3,0.3,0.7,0.5,1c0.1,0.1,0.2,0.2,0.3,0.3c1.8,1.4,4.5,1.4,6.2-0.3c2.5-2.6,5.1-5.1,7.6-7.6c1.9-1.8,1.9-4.5,0.3-6.2
				c-0.1-0.1-0.1-0.2,0-0.3c0.7-0.8,1.5-1.7,2.2-2.5c0.2-0.2,0.2-0.1,0.3,0c2.8,3,2.8,7.8,0,10.8c-2.7,2.8-5.5,5.6-8.3,8.3
				C35.7,58.3,33.9,59,31.9,59z"/>
		</g>
	</g>
</g>
</svg>
