<?xml version="1.0" encoding="utf-8"?>
<!-- Generator: Adobe Illustrator 27.0.0, SVG Export Plug-In . SVG Version: 6.00 Build 0)  -->
<svg version="1.1" id="Camada_1" xmlns="http://www.w3.org/2000/svg" xmlns:xlink="http://www.w3.org/1999/xlink" x="0px" y="0px"
	 viewBox="0 0 371 89" style="enable-background:new 0 0 371 89;" xml:space="preserve">
<style type="text/css">
	.st0{fill:none;stroke:#E8B611;stroke-width:3.6191;stroke-miterlimit:10;}
	.st1{fill:#F7DF1E;}
</style>
<path class="st0" d="M344.3,76.7H26c-6.5,0-11.9-5.3-11.9-11.9V26.1c0-6.5,5.3-11.9,11.9-11.9h318.3c6.5,0,11.9,5.3,11.9,11.9v38.8
	C356.1,71.4,350.8,76.7,344.3,76.7z"/>
<g>
	<path class="st1" d="M78.1,56.3V53h-3.4v-3.4h6.8V53h10.1V32.7h6.8V53h-3.4v3.4H78.1z"/>
	<path class="st1" d="M101.7,56.3V39.5h3.4v-3.4h3.4v-3.4h10.1v3.4h3.4v3.4h3.4v16.9h-6.8v-6.8h-10.1v6.8H101.7z M108.4,46.2h10.1
		v-6.8h-3.4v-3.4h-3.4v3.4h-3.4V46.2z"/>
	<path class="st1" d="M138.8,56.3V53h-3.4v-3.4h-3.4v-3.4h-3.4V32.7h6.8v10.1h3.4v3.4h3.4v-3.4h3.4V32.7h6.8v13.5h-3.4v3.4h-3.4V53
		h-3.4v3.4H138.8z"/>
	<path class="st1" d="M155.7,56.3V39.5h3.4v-3.4h3.4v-3.4h10.1v3.4h3.4v3.4h3.4v16.9h-6.8v-6.8h-10.1v6.8H155.7z M162.4,46.2h10.1
		v-6.8h-3.4v-3.4h-3.4v3.4h-3.4V46.2z"/>
	<path class="st1" d="M186.1,56.3V53h-3.4v-3.4h6.8V53h10.1v-6.8h-13.5v-3.4h-3.4v-6.8h3.4v-3.4h16.9v3.4h3.4v3.4h-6.8v-3.4h-10.1
		v6.8h13.5v3.4h3.4V53h-3.4v3.4H186.1z"/>
	<path class="st1" d="M216.4,56.3V53h-3.4v-3.4h-3.4V39.5h3.4v-3.4h3.4v-3.4h13.5v3.4h3.4v3.4h-6.8v-3.4h-6.8v3.4h-3.4v10.1h3.4V53
		h6.8v-3.4h6.8V53h-3.4v3.4H216.4z"/>
	<path class="st1" d="M236.7,56.3V32.7h20.2v3.4h3.4v10.1h-6.8v3.4h3.4V53h3.4v3.4h-10.1V53h-3.4v-3.4h-3.4v6.8H236.7z M243.4,46.2
		h6.8v-3.4h3.4v-6.8h-10.1V46.2z"/>
	<path class="st1" d="M267.1,56.3V53h6.8V36.1h-6.8v-3.4h20.2v3.4h-6.8V53h6.8v3.4H267.1z"/>
	<path class="st1" d="M290.7,56.3V32.7h20.2v3.4h3.4v10.1h-3.4v3.4h-13.5v6.8H290.7z M297.4,46.2h10.1V36.1h-10.1V46.2z"/>
	<path class="st1" d="M327.8,56.3V36.1h-6.8v-3.4h20.2v3.4h-6.8v20.2H327.8z"/>
</g>
<g>
	<g>
		<path class="st1" d="M62.8,34.9c-0.1,0.4-0.2,0.8-0.3,1.2c-0.4,1.4-1,2.5-2,3.5c-1.3,1.3-2.6,2.6-3.9,3.9c-0.2,0.2-0.3,0.2-0.4,0
			c-0.7-0.7-1.4-1.4-2-2c-0.2-0.2-0.2-0.3,0-0.4c1.3-1.2,2.5-2.5,3.7-3.7c0.8-0.8,1.2-1.7,1.3-2.7c0.1-0.7-0.1-1.4-0.3-2.1
			c-0.1-0.2-0.2-0.4-0.2-0.5c-0.5-1.4-1.6-1.9-3-2.1c-1.5-0.2-2.8,0.2-3.9,1.4c-2.5,2.6-5.1,5.1-7.6,7.6c-1.8,1.8-1.9,4.2-0.2,6.1
			c0.1,0.2,0.1,0.2,0,0.4c-0.7,0.7-1.4,1.4-2.1,2.1c-0.2,0.2-0.2,0.2-0.4,0c-2.7-2.7-2.9-7-0.6-9.9c0.7-0.9,1.5-1.6,2.3-2.4
			c2.1-2.1,4.2-4.1,6.2-6.2c1.3-1.3,2.9-2.2,4.8-2.5c0,0,0,0,0.1-0.1c0.3,0,0.6,0,1,0c0.1,0.1,0.2,0,0.4,0c0.1,0,0.2,0,0.3,0
			c1,0,1.9,0.3,2.8,0.8c1.4,0.7,2.5,1.8,3.3,3.2c0.5,0.9,0.9,1.9,0.9,2.9c0,0,0,0.1,0,0.1C62.8,33.9,62.8,34.4,62.8,34.9z"/>
		<path class="st1" d="M55.5,26.4c-0.1,0-0.3,0.1-0.4-0.1C55.3,26.3,55.4,26.3,55.5,26.4C55.5,26.3,55.5,26.3,55.5,26.4
			C55.5,26.4,55.5,26.4,55.5,26.4z"/>
		<path class="st1" d="M55.5,26.4C55.5,26.3,55.5,26.3,55.5,26.4c0.1-0.1,0.2-0.1,0.3-0.1c0,0,0,0,0,0.1
			C55.7,26.4,55.6,26.4,55.5,26.4z"/>
		<path class="st1" d="M35.3,61.5c-4.3,0-8-3.6-7.8-8.2c0.1-1.9,0.8-3.5,2.1-4.9c1.3-1.4,2.7-2.7,4.1-4.1c0.1-0.1,0.2-0.1,0.3,0
			c0.7,0.7,1.4,1.4,2.1,2.1c0.2,0.2,0.2,0.2,0,0.4c-1.3,1.3-2.5,2.6-3.8,4c-0.7,0.8-1.2,1.6-1.3,2.7c-0.1,0.9,0.2,1.6,0.5,2.4
			c0.1,0.3,0.3,0.7,0.5,1c0.1,0.1,0.2,0.2,0.3,0.3c1.8,1.4,4.5,1.4,6.2-0.3c2.5-2.6,5.1-5.1,7.6-7.6c1.9-1.8,1.9-4.5,0.3-6.2
			c-0.1-0.1-0.1-0.2,0-0.3c0.7-0.8,1.5-1.7,2.2-2.5c0.2-0.2,0.2-0.1,0.3,0c2.8,3,2.8,7.8,0,10.8c-2.7,2.8-5.5,5.6-8.3,8.3
			C39.1,60.8,37.2,61.5,35.3,61.5z"/>
	</g>
</g>
</svg>
