<?xml version="1.0" encoding="utf-8"?>
<!-- Generator: Adobe Illustrator 27.0.0, SVG Export Plug-In . SVG Version: 6.00 Build 0)  -->
<svg version="1.1" id="Camada_1" xmlns="http://www.w3.org/2000/svg" xmlns:xlink="http://www.w3.org/1999/xlink" x="0px" y="0px"
	 viewBox="0 0 39 39" style="enable-background:new 0 0 39 39;" xml:space="preserve">
<style type="text/css">
	.st0{clip-path:url(#SVGID_00000178198715937453854730000012004697099550109840_);}
	.st1{fill:#384F66;}
	.st2{fill:#F06E53;}
	.st3{fill:#FFFFFF;}
	.st4{fill:#004471;}
	.st5{fill:#E2DDE2;}
	.st6{fill:#002958;}
	.st7{fill:#F0F0F0;}
	.st8{fill:#F3F1F0;stroke:#FFFFFF;stroke-width:6.745870e-02;stroke-miterlimit:10;}
	.st9{stroke:#FFFFFF;stroke-width:0.1349;stroke-miterlimit:10;}
	.st10{fill:#DBDBDC;}
</style>
<g>
	<defs>
		<rect id="SVGID_1_" y="0" width="39" height="39"/>
	</defs>
	<clipPath id="SVGID_00000142167904517026904070000014253332738000982165_">
		<use xlink:href="#SVGID_1_"  style="overflow:visible;"/>
	</clipPath>
	<g style="clip-path:url(#SVGID_00000142167904517026904070000014253332738000982165_);">
		<g>
			<circle class="st1" cx="19.5" cy="19.5" r="19.5"/>
		</g>
		<path class="st2" d="M19.5,0c3.5,0,6.9,0.9,9.9,2.7c3,1.8,5.5,4.3,7.2,7.4c1.7,3.1,2.5,6.5,2.4,10S37.8,27,36,30
			c-1.9,2.9-4.5,5.3-7.6,6.9s-6.6,2.3-10.1,2.1c-3.5-0.2-6.8-1.4-9.7-3.3c-2.9-2-5.2-4.7-6.7-7.8l2.7-1.3c1.3,2.7,3.2,5,5.7,6.6
			c2.4,1.7,5.3,2.6,8.3,2.8s5.9-0.4,8.6-1.8c2.6-1.3,4.9-3.4,6.5-5.9c1.6-2.5,2.5-5.4,2.6-8.3s-0.6-5.9-2-8.5
			c-1.4-2.6-3.5-4.8-6.1-6.3C25.4,3.8,22.5,3,19.5,3V0z"/>
		<circle class="st3" cx="19.5" cy="19.5" r="17.5"/>
		<g>
			<g>
				<g>
					<circle class="st2" cx="29.7" cy="10.1" r="1.2"/>
					<path class="st4" d="M23.8,19.4c-0.2,0-0.5-0.2-0.5-0.4c-0.7-3,0.1-5.9,2.2-7.7c1.3-1.2,2.9-1.6,3.9-1.7c0.3,0,0.6,0.2,0.6,0.5
						c0,0.3-0.2,0.6-0.5,0.6c-0.9,0.1-2.2,0.4-3.3,1.4c-1.7,1.5-2.4,4.1-1.8,6.6c0.1,0.3-0.1,0.6-0.4,0.6
						C23.9,19.4,23.9,19.4,23.8,19.4z"/>
				</g>
				<g>
					<path class="st5" d="M8.4,23.7c1.8-1.9,2.3-5.4,2.5-8.6l4.1,1.2c-2.7,1.6-3.1,5.5-2.5,8.5L8.4,23.7z"/>
					<g>
						<path class="st3" d="M10.9,15.2l3.9,1.1c-2.6,1.7-3,5.5-2.4,8.5l-3.9-1.1C10.3,21.7,10.7,18.3,10.9,15.2 M10.9,15.1
							c-0.2,3.6-0.8,6.8-2.5,8.6l4.2,1.2c-0.6-3.3-0.1-7,2.5-8.6L10.9,15.1L10.9,15.1z"/>
					</g>
				</g>
				<g>
					<path class="st6" d="M21.2,27.4L9.8,24.1c2.1-2.5,1.6-5.7,1.1-8.9l12.7,3.5C23.9,22.1,22.9,24.9,21.2,27.4z"/>
				</g>
				<g>
					<g>
						<g>
							<polygon class="st5" points="11.9,20.1 11.7,17.7 11.3,15.2 13.4,15.8 15.4,16.4 13.8,18.3 							"/>
						</g>
						<g>
							<polygon class="st5" points="16,21.2 15.8,18.9 15.4,16.4 17.5,17 19.6,17.6 17.9,19.5 							"/>
						</g>
						<g>
							<polygon class="st5" points="20.2,22.4 20,20.1 19.6,17.6 21.7,18.2 23.7,18.8 22.1,20.7 							"/>
						</g>
					</g>
				</g>
				<g>
					<g>
						<g>
							<polygon class="st7" points="11.8,20.1 11.4,17.6 11,15.1 13.1,15.7 15.1,16.3 13.4,18.1 							"/>
						</g>
						<g>
							<polygon class="st7" points="15.9,21.3 15.5,18.8 15.1,16.3 17.2,16.9 19.3,17.5 17.5,19.3 							"/>
						</g>
						<g>
							<polygon class="st7" points="20.1,22.5 19.7,20 19.3,17.5 21.4,18.1 23.4,18.7 21.7,20.5 							"/>
						</g>
					</g>
				</g>
				<g>
					<g>
						<polygon class="st5" points="13.2,20.8 11.8,22.2 10.1,24.2 12.2,24.8 14.3,25.4 13.9,22.8 						"/>
					</g>
					<g>
						<polygon class="st5" points="17.4,21.8 16,23.4 14.3,25.4 16.4,26 18.4,26.5 18,24 						"/>
					</g>
					<g>
						<polygon class="st5" points="21.5,23.1 20.1,24.6 18.5,26.6 20.5,27.1 22.6,27.7 22.2,25.2 						"/>
					</g>
				</g>
				<g>
					<g>
						<polygon class="st7" points="13.2,20.3 11.5,22.2 9.8,24.1 11.9,24.7 14,25.3 13.4,22.9 						"/>
					</g>
					<g>
						<polygon class="st7" points="17.3,21.5 15.7,23.4 14,25.3 16.1,25.9 18.1,26.5 17.6,24.1 						"/>
					</g>
					<g>
						<polygon class="st7" points="21.5,22.7 19.8,24.6 18.1,26.5 20.2,27.1 22.3,27.7 21.7,25.3 						"/>
					</g>
				</g>
				<g>
					<path class="st5" d="M20.9,27.3c1.8-2.3,3.4-5.8,2.5-8.6l3.1,0.9L24,28.2L20.9,27.3z"/>
					<g>
						<path class="st3" d="M23.4,18.8l3,0.9L24,28.1l-3-0.9C22.7,24.9,24.2,21.5,23.4,18.8 M23.3,18.7c0.8,2.6-0.6,6.1-2.5,8.6
							l3.1,0.9l2.5-8.6L23.3,18.7L23.3,18.7z"/>
					</g>
				</g>
				<path class="st8" d="M16,11.3l-0.9-0.2c-1.5-0.4-3.2,0.5-3.6,2L11,15.2l8.6,2.5l0,0C20.3,14.9,18.7,12.1,16,11.3z"/>
				<ellipse transform="matrix(0.277 -0.9609 0.9609 0.277 -2.9705 23.5077)" class="st9" cx="14.1" cy="13.7" rx="1.4" ry="1"/>
				<g>
					<polygon class="st7" points="8.1,24.6 8.4,23.7 24,28.2 23.7,29.1 					"/>
					<g>
						<path class="st3" d="M8.5,23.8l15.5,4.5L23.7,29L8.2,24.6L8.5,23.8 M8.4,23.7l-0.3,1l15.6,4.5l0.3-1L8.4,23.7L8.4,23.7z"/>
					</g>
				</g>
				<g>
					<circle cx="24" cy="19.4" r="0.2"/>
				</g>
				<g>
					<circle cx="25.9" cy="19.9" r="0.2"/>
				</g>
				<g>
					<circle cx="21.7" cy="27.2" r="0.2"/>
				</g>
				<g>
					<circle cx="23.6" cy="27.7" r="0.2"/>
				</g>
				<g>
					<circle cx="8.6" cy="23.9" r="0.1"/>
				</g>
				<g>
					<circle cx="8.4" cy="24.5" r="0.1"/>
				</g>
				<g>
					<circle cx="20.5" cy="28" r="0.1"/>
				</g>
				<g>
					<circle cx="20.7" cy="27.4" r="0.1"/>
				</g>
				<g>
					<polygon class="st10" points="20.6,28.2 20.9,27.3 24,28.2 23.7,29.1 					"/>
					<g>
						<path class="st3" d="M20.9,27.4l3,0.9L23.7,29l-3-0.9L20.9,27.4 M20.9,27.3l-0.3,1l3.1,0.9l0.3-1L20.9,27.3L20.9,27.3z"/>
					</g>
				</g>
				<path class="st8" d="M22.9,13.3l-0.6-0.2c-1.5-0.4-3.2,0.5-3.6,2l-0.6,2.1l8.3,2.4l0,0C27.1,16.9,25.6,14.1,22.9,13.3z"/>
				<ellipse transform="matrix(0.277 -0.9609 0.9609 0.277 0.3627 32.2452)" class="st9" cx="21.6" cy="15.9" rx="1.4" ry="1"/>
			</g>
			<path d="M12.4,30.1c-0.4,0-0.8-0.2-1.1-0.4c-0.9-0.7-1.2-2-0.7-3.4l0.1,0c-0.4,1.3-0.2,2.7,0.7,3.3c0.3,0.2,0.6,0.3,1,0.4
				L12.4,30.1z"/>
			<path d="M14.1,29.7c-0.4,0-0.7-0.2-1-0.4c-0.8-0.6-1-1.8-0.6-3l0.1,0c-0.4,1.2-0.1,2.3,0.6,2.8c0.2,0.2,0.5,0.3,0.9,0.3
				L14.1,29.7z"/>
			<path d="M15.3,29c-0.3,0-0.5-0.1-0.7-0.3c-0.6-0.4-0.8-1.4-0.5-2.3l0.1,0c-0.3,0.9-0.1,1.7,0.4,2.1c0.2,0.1,0.4,0.2,0.7,0.3
				L15.3,29z"/>
		</g>
	</g>
</g>
</svg>
